<svg width="538" height="529" xmlns="http://www.w3.org/2000/svg" xmlns:xlink="http://www.w3.org/1999/xlink" xml:space="preserve" overflow="hidden"><defs><filter id="fx0" x="-10%" y="-10%" width="120%" height="120%" filterUnits="userSpaceOnUse" primitiveUnits="userSpaceOnUse"><feComponentTransfer color-interpolation-filters="sRGB"><feFuncR type="discrete" tableValues="0 0"/><feFuncG type="discrete" tableValues="0 0"/><feFuncB type="discrete" tableValues="0 0"/><feFuncA type="linear" slope="0.4" intercept="0"/></feComponentTransfer><feGaussianBlur stdDeviation="1.77778 1.77778"/></filter><clipPath id="clip1"><rect x="421" y="59" width="538" height="529"/></clipPath><clipPath id="clip2"><rect x="58" y="106" width="424" height="318"/></clipPath></defs><g clip-path="url(#clip1)" transform="translate(-421 -59)"><g clip-path="url(#clip2)" filter="url(#fx0)" transform="translate(420 58)"><g><g><g><g><path d="M436.219 409.292 80.7812 409.292C68.9333 409.292 59.2396 399.598 59.2396 387.75L59.2396 129.25C59.2396 117.402 68.9333 107.708 80.7812 107.708L182.027 107.708C186.335 107.708 190.644 108.785 193.875 111.478L253.115 150.792 436.219 150.792C448.067 150.792 457.76 160.485 457.76 172.333L457.76 387.75C457.76 399.598 448.067 409.292 436.219 409.292Z" fill="#BFBFBF" transform="matrix(-1.01741 0 0 1 533 7)"/></g></g></g></g></g><g><g><g><path d="M436.219 409.292 80.7812 409.292C68.9333 409.292 59.2396 399.598 59.2396 387.75L59.2396 129.25C59.2396 117.402 68.9333 107.708 80.7812 107.708L182.027 107.708C186.335 107.708 190.644 108.785 193.875 111.478L253.115 150.792 436.219 150.792C448.067 150.792 457.76 160.485 457.76 172.333L457.76 387.75C457.76 399.598 448.067 409.292 436.219 409.292Z" fill="#BFBFBF" transform="matrix(-1.01741 0 0 1 953 61)"/></g></g></g></g></svg>